<?xml version="1.0" encoding="UTF-8" standalone="no"?>
<svg
   xmlns:dc="http://purl.org/dc/elements/1.1/"
   xmlns:cc="http://creativecommons.org/ns#"
   xmlns:rdf="http://www.w3.org/1999/02/22-rdf-syntax-ns#"
   xmlns:svg="http://www.w3.org/2000/svg"
   xmlns="http://www.w3.org/2000/svg"
   xmlns:sodipodi="http://sodipodi.sourceforge.net/DTD/sodipodi-0.dtd"
   xmlns:inkscape="http://www.inkscape.org/namespaces/inkscape"
   viewBox="0 0 500 500"
   version="1.1"
   id="svg20"
   sodipodi:docname="kansas-city-chiefs-logo.svg"
   inkscape:version="0.92.4 (5da689c313, 2019-01-14)">
  <metadata
     id="metadata26">
    <rdf:RDF>
      <cc:Work
         rdf:about="">
        <dc:format>image/svg+xml</dc:format>
        <dc:type
           rdf:resource="http://purl.org/dc/dcmitype/StillImage" />
        <dc:title>Logos/Clubs/KC/Primary</dc:title>
      </cc:Work>
    </rdf:RDF>
  </metadata>
  <defs
     id="defs24" />
  <sodipodi:namedview
     pagecolor="#ffffff"
     bordercolor="#666666"
     borderopacity="1"
     objecttolerance="10"
     gridtolerance="10"
     guidetolerance="10"
     inkscape:pageopacity="0"
     inkscape:pageshadow="2"
     inkscape:window-width="1600"
     inkscape:window-height="837"
     id="namedview22"
     showgrid="false"
     inkscape:zoom="0.472"
     inkscape:cx="250"
     inkscape:cy="250"
     inkscape:window-x="-8"
     inkscape:window-y="-8"
     inkscape:window-maximized="1"
     inkscape:current-layer="svg20" />
  <title
     id="title2">Logos/Clubs/KC/Primary</title>
  <desc
     id="desc4">Created with Sketch.</desc>
  <g
     id="g18"
     transform="matrix(0.95444259,0,0,0.95444259,11.389354,11.389359)"
     style="fill:none"
     inkscape:export-filename="C:\Users\suitedoalex\sites\kansas-city-chiefs-logo-4.png"
     inkscape:export-xdpi="108.14152"
     inkscape:export-ydpi="108.14152" />
  <path
     inkscape:connector-curvature="0"
     style="fill:#ffffff;stroke-width:0.79206306"
     d="m 86.085141,321.18256 c -2.145699,-0.9774 -4.965443,-1.70214 -7.456483,-5.61969 -2.798358,-4.41733 -1.810656,-7.64261 -0.912456,-13.74704 0.951268,-6.46878 0.84434,-9.08735 -0.972653,-16.28086 -1.489871,-5.90879 -2.331041,-7.93885 -3.254587,-14.79257 -0.570286,-4.22803 -0.987702,-7.78519 -1.026514,-10.17564 -0.05703,-3.55398 0.213858,-6.88224 0.601968,-11.82786 0.213857,-2.74768 0.883942,-6.64701 3.253795,-13.78666 0.780974,-2.34054 2.891031,-7.87469 4.181301,-10.50434 2.163916,-4.38883 4.483869,-6.56145 3.403495,-14.30387 -0.413457,-2.97578 -1.5469,-4.57417 -2.013425,-8.56695 -0.527514,-4.52744 -0.224946,-6.65413 0.623355,-9.45485 0.848299,-2.78649 1.860556,-4.52745 3.58963,-6.66839 1.005127,-1.24194 2.904494,-3.65378 7.274306,-4.42762 0,0 2.86886,-0.82059 5.21811,-0.17506 5.902447,0.51405 5.032767,5.72979 13.843677,0.26376 4.22012,-2.35876 11.45958,-4.24229 18.76239,0.88157 3.11914,1.83362 5.72741,8.06319 2.37382,-2.20828 -1.56828,-6.10442 -3.16192,-9.14832 -5.29653,-18.75684 -2.49816,-9.08734 -0.47444,-18.36081 6.92896,-23.37695 5.34326,-4.69535 16.18501,-2.6043 28.7606,-0.24634 11.03502,2.07284 13.64408,-1.4059 21.15759,-1.08432 4.22407,0.18218 7.80894,0.19643 11.28848,1.01304 4.79752,1.13108 7.50242,2.53303 10.15425,3.97854 7.52778,4.10684 7.09293,0.0499 17.60756,1.43442 3.36468,0.44276 4.68664,-0.0538 8.0941,0.93146 3.94209,1.13424 6.38403,2.43718 9.86593,4.46725 9.74871,5.67987 9.75901,6.95747 25.99789,6.24779 3.00509,-0.13227 8.36181,2.18689 11.25996,4.0815 3.22212,2.10847 11.05245,6.6652 17.97112,7.10718 8.81092,0.56396 16.36006,-0.55998 27.22401,7.16818 7.93409,7.06123 17.7929,6.72936 26.59668,11.51026 2.83004,1.53421 9.59109,6.70797 12.913,12.04569 0.70891,1.14533 3.60706,3.02568 10.84255,4.22407 6.50442,1.07404 13.3233,8.80219 16.9549,14.19694 4.67634,4.31357 1.93501,1.38453 8.3436,5.85494 3.09776,2.16232 4.65179,3.24348 7.68063,5.50878 3.94527,2.95044 1.42967,0.7992 6.14166,4.52032 0.86256,0.67799 2.01026,1.97302 5.15712,4.80623 4.08863,3.14686 5.8779,5.94761 7.25372,8.69131 2.32074,4.61694 0.46335,7.87072 -1.67918,11.69956 -1.58254,2.815 -4.11635,7.34639 -8.15509,11.16096 -4.48386,4.23516 -4.12743,4.35634 -8.21923,6.80778 -9.29882,5.55554 -16.246,3.67517 -20.18097,10.3079 -5.81296,9.79782 -10.48929,12.96212 -14.87732,15.01753 -8.8426,4.14565 -14.77752,3.99991 -20.3877,8.40615 -4.57259,3.58964 -11.80096,8.20974 -16.68798,10.39029 -9.40575,4.1924 -10.56454,1.72671 -17.00164,5.74801 -2.1845,1.36631 -0.79839,0.5782 -6.29452,5.10959 -3.16508,2.60827 -8.2121,4.8205 -10.72136,5.1698 -3.28231,0.46019 -6.90759,0.82057 -9.9697,1.64115 -7.7234,2.06966 -8.56458,4.78486 -17.07608,6.41888 -9.93406,1.90888 -14.04012,0.96316 -23.52111,5.48742 -2.47361,1.18097 -5.17534,2.36192 -8.79666,4.32783 -2.97974,1.62373 -12.13995,3.83913 -19.21544,4.19239 -3.08271,0.15684 -5.97692,-1.8764 -13.43736,1.68075 -9.63069,4.59159 -9.76614,4.12429 -17.40083,5.67276 -2.77618,0.56395 -5.89849,0.25347 -8.80378,0.24237 -5.54998,-0.0142 -11.33125,-1.93421 -17.26223,-1.75204 -6.08066,0.19248 -4.6692,-0.18217 -9.73049,0.39287 l -3.58567,0.58533 -5.28623,1.1778 -1.92075,0.51009 c -4.84742,1.06294 -7.74478,0.6281 -10.58275,0.0713 -4.76505,-0.94571 -10.04731,-3.7924 -11.96489,-6.40462 -3.15084,-3.76388 -3.58251,-7.38598 -3.215,-12.3237 1.77819,-8.60577 5.42484,-20.85818 7.11749,-25.22879 0,0 2.79439,-6.35473 -3.96665,-2.79361 -6.85056,2.52588 -12.20411,-1.89461 -16.36007,-0.4784 -4.09893,2.06253 -6.63353,3.94606 -11.758967,4.69534 -5.321872,0.77464 -9.449313,-0.86017 -9.449313,-0.86017"
     id="path8"
     inkscape:export-filename="C:\Users\suitedoalex\sites\kansas-city-chiefs-logo-4.png"
     inkscape:export-xdpi="108.14152"
     inkscape:export-ydpi="108.14152" />
  <path
     inkscape:connector-curvature="0"
     style="fill:#000000;stroke-width:0.79206306"
     d="m 162.40674,354.84286 c 6.14482,-0.69227 7.61332,-0.27088 13.12054,0.4499 5.11831,0.67088 10.01562,1.65936 15.08721,1.08116 2.54173,-0.2891 5.05019,-0.77463 7.53885,-1.56986 7.11035,-2.2764 10.41088,-5.36624 18.98021,-6.53294 7.09609,-0.96315 7.10006,0.22099 13.31934,-0.0752 6.51946,-0.31048 10.14395,-3.08984 12.88844,-4.58129 3.32904,-1.81224 4.19873,-1.95877 6.4268,-3.15082 8.05528,-4.31358 17.51489,-3.77814 26.56421,-5.99037 6.36185,-1.55561 8.85368,-4.55595 15.96087,-6.46166 2.8229,-0.75641 5.91988,-0.70255 8.94239,-1.1271 2.31361,-0.32079 6.40145,-2.38015 8.68972,-4.49179 3.92388,-3.63557 3.48984,-3.7821 6.54085,-5.50167 5.08585,-2.87915 10.84572,-2.79044 15.96087,-5.16663 4.75792,-2.20828 9.65208,-4.08863 13.41913,-7.89212 5.48899,-5.5484 14.15417,-7.10004 21.27877,-9.68693 4.19556,-1.53027 9.70594,-4.22802 14.32842,-12.22708 4.53694,-7.83508 8.55112,-8.95902 16.6167,-11.38908 5.36385,-1.61976 7.68063,-2.76508 11.81203,-6.6652 3.72112,-3.51121 5.05732,-5.76938 6.72937,-8.22796 1.91362,-2.8221 5.67435,-7.45726 1.67917,-11.00333 -1.75362,-1.55957 -3.52864,-4.45299 -7.29648,-7.35352 -2.8942,-2.60825 -5.28544,-4.06407 -6.08067,-4.69218 -4.34129,-3.42487 -0.68434,-0.72077 -4.85456,-3.36072 -2.9441,-1.86213 -3.77497,-3.36072 -6.80778,-5.07396 -5.43196,-3.06845 -5.99908,-3.97457 -10.34038,-9.19426 -3.76705,-6.95432 -9.67664,-7.92064 -15.60048,-9.24496 -5.72422,-1.2776 -9.78435,-5.84781 -10.74987,-7.42164 -3.0439,-4.92741 -7.96261,-7.37172 -10.57166,-8.78793 -8.10519,-4.39912 -17.45074,-3.69657 -24.75357,-10.19702 -11.0065,-7.82479 -13.90387,-6.37611 -25.47353,-6.73254 -6.38007,-0.19247 -14.75218,-4.27477 -17.47925,-6.54401 -2.29222,-1.90888 -4.93693,-3.1651 -7.29965,-3.893 -8.15508,-2.51559 -13.73992,1.80511 -25.14246,-3.74963 -3.333,-1.6269 -6.34125,-3.85735 -9.61643,-5.74403 -2.03878,-1.17385 -3.5928,-1.74097 -6.78641,-2.43006 -6.03471,-1.30611 -11.28769,-0.47128 -18.59842,0.1497 -3.42885,0.29623 -5.46445,-1.52709 -8.61527,-3.22925 -2.89421,-1.56669 -5.98404,-2.71914 -9.81208,-3.42883 -4.95435,-0.92037 -10.5788,-0.27089 -16.33868,0.88473 -11.40254,2.29065 -21.86728,-3.48587 -32.8627,-2.45856 -1.86372,0.17505 -5.5571,2.51559 -6.79352,5.13811 -1.66095,3.51438 -1.66095,5.54445 -1.41542,9.02002 0.33505,4.71673 0.89108,5.05257 1.81384,8.12101 1.99599,6.66127 3.00825,10.28653 4.60109,14.77832 1.85025,5.21969 1.78928,11.57442 -2.6051,13.60131 -2.11718,0.97739 -5.63869,1.00275 -7.62756,-0.51722 -3.0938,-2.35876 -4.78644,-5.67989 -8.27627,-6.36502 -4.65495,-0.92038 -10.23979,3.86052 -15.18701,5.16267 -4.96149,1.30928 -5.59277,-1.39165 -9.039027,-2.99004 -2.29224,-1.06295 -4.49496,0.48553 -5.78127,1.19918 -2.320747,1.29503 -2.879943,3.96745 -3.421715,6.81492 -0.430882,2.27955 -0.617016,4.40307 -0.05307,6.88619 0.815824,3.61102 2.017385,5.77652 2.110055,8.29212 0.220986,6.32224 -0.79127,10.96056 -3.400327,14.29674 -1.656995,2.12272 -3.82804,7.9816 -4.512383,10.14711 -2.28827,7.24263 -2.014216,5.98006 -3.119144,12.70944 -0.567117,3.43201 -0.473653,7.2854 -0.777013,10.50038 -0.05703,0.59246 0.381774,7.89924 0.734241,10.07979 0.873646,5.40188 1.885111,8.88061 3.022513,13.4334 1.636402,6.57965 2.338171,10.66829 2.174214,15.7565 -0.163958,5.2094 -3.447059,10.10831 -0.327914,13.78666 1.93897,2.28351 6.989955,4.34604 11.099183,2.53301 4.163077,-1.84472 7.199847,-4.01735 10.471867,-4.46723 6.0276,-0.83167 9.90157,1.75204 12.51776,1.44472 2.3057,-0.27089 6.36265,-2.59005 8.27231,-2.75084 1.52235,-0.12831 4.82207,-0.27484 5.98086,0.59247 1.83521,1.37739 2.96945,2.90054 2.66293,7.66003 -0.006,0.0713 -1.11602,5.07 -1.12632,5.11277 -1.89937,6.25809 -3.94923,12.06709 -4.9298,16.3664 -1.02254,4.48466 -5.94127,14.19694 4.03873,18.17548 4.20269,1.67363 8.64696,1.34888 14.15417,-0.0682 2.79043,-0.72079 3.94922,-0.8388 6.5551,-1.27366 0,-0.19642 3.90962,-0.12513 3.90962,-0.3176 l 3.47161,-0.14654"
     id="path10"
     inkscape:export-filename="C:\Users\suitedoalex\sites\kansas-city-chiefs-logo-4.png"
     inkscape:export-xdpi="108.14152"
     inkscape:export-ydpi="108.14152" />
  <path
     inkscape:connector-curvature="0"
     style="fill:#ffffff;stroke-width:0.79206306"
     d="m 351.332,204.17108 c 2.70173,1.7663 5.80662,6.32224 8.41568,10.0901 3.18329,2.90053 3.47161,4.58129 11.36689,5.99037 -1.52551,-0.27484 7.10401,2.7049 8.40458,3.43201 3.3932,1.88353 4.25893,3.04311 7.26718,6.47591 3.11122,3.55003 4.34842,4.49891 10.62553,8.69843 2.43796,1.63403 2.8728,2.21937 7.51668,5.52306 1.91361,1.36314 4.33734,3.56825 5.19988,5.38048 2.1956,4.60268 -0.86968,6.24067 -5.64186,8.76973 -7.84539,4.16387 -14.33872,2.97578 -21.40392,10.19702 -5.89533,6.01888 -12.33638,13.36209 -16.6951,14.68247 -1.90016,0.5782 -6.93214,2.1552 -10.3689,4.29218 -3.40429,2.11957 -4.36585,2.05144 -7.41767,4.77377 -3.62448,3.23241 -5.64899,5.55157 -12.3142,7.85647 -4.11003,1.41621 -8.96061,2.07679 -13.26627,3.36785 -3.18648,0.95999 -5.73454,2.28669 -8.56853,3.89617 -4.32705,2.4546 -9.53487,8.19943 -16.69195,9.5301 -14.17159,2.63994 -10.40771,2.35163 -20.51205,6.92896 -2.50926,1.1382 -7.68856,2.37619 -11.32413,2.37619 -6.07671,0 -10.8172,1.00592 -16.1676,3.85339 -3.89536,2.0768 -7.86279,5.89057 -15.5078,6.90758 -9.44535,1.25621 -9.96969,0.0713 -21.69618,2.57975 -3.55716,0.76671 -8.04816,3.36073 -11.44135,4.58842 -3.80982,1.38057 -12.78549,1.55245 -19.12596,0.97027 -6.19472,-0.5671 -10.74274,-0.5782 -19.69226,1.04553 -6.92897,1.25622 -10.66433,1.39878 -17.39371,1.2277 -1.51442,-0.0428 -2.655,-1.10573 -3.63557,-2.70489 -1.16908,-1.89779 -1.30769,-3.56429 -1.05185,-5.6585 0.5386,-4.39912 0.44592,-4.61377 1.48274,-8.68815 0.31761,-1.23799 1.87164,-9.31227 2.1457,-10.54711 1.7362,-7.76775 2.27084,-15.59889 -3.8423,-19.13465 -1.91045,-1.10255 -6.65808,-1.81224 -10.09404,-1.20236 -10.35069,1.83759 -8.18043,3.57854 -14.79495,1.23801 -1.11206,-0.39287 -3.92467,-0.90296 -5.56028,-0.83484 -3.31083,0.13226 -8.02994,2.4546 -12.204117,3.11121 -2.92984,0.46416 -3.69655,-2.80468 -3.61814,-5.14127 0.12119,-3.62131 0.499,-7.10006 0.33821,-11.14988 -0.42771,-10.60017 -2.27718,-11.17125 -3.553193,-17.56162 -1.157998,-5.7979 -0.823746,-15.6385 -1.100969,-15.35968 0.288311,-8.11706 3.963482,-16.86223 6.056112,-19.88395 2.18848,-3.16826 2.65896,-4.46011 4.32308,-8.33488 1.760757,-4.09972 1.525507,-7.72103 0.631277,-12.32371 -0.0214,-0.11089 -1.087497,-3.51439 -0.701767,-3.51439 -0.30653,-2.16946 0.21702,-4.54564 0.909277,-6.01888 1.1192,-2.38729 1.98888,-3.5429 3.77102,-4.31358 1.10176,-0.48157 2.26689,-1.05978 3.43993,-1.14136 3.84547,-0.27089 4.62328,2.19797 11.81204,-0.82058 3.72111,-1.56669 7.42084,0.53148 9.24971,1.20235 4.98604,1.8162 4.12031,1.8162 7.29649,1.91917 3.01855,0.0966 5.92383,-0.66691 8.72535,-2.36905 1.61106,-0.98454 2.83004,-1.52315 3.78528,-2.9148 0.81978,-1.19919 1.90648,-4.50605 2.19876,-6.21532 0.35644,-2.07996 0.93781,-3.38607 0.35644,-8.31349 -1.59285,-6.087 -2.17026,-7.39312 -3.26094,-11.24651 -0.88394,-3.13973 -1.95322,-6.14404 -2.40232,-9.02714 -0.006,-0.0539 -0.12831,-3.49696 -0.12831,-3.49696 -0.38812,-2.87914 1.56828,-4.94485 4.05615,-4.96623 8.91072,-0.0713 17.26856,2.46885 26.68619,2.40866 7.77014,-0.0499 11.07383,-1.64116 20.21979,1.69106 3.18647,1.15958 5.06841,3.76784 10.05524,5.17376 9.48495,2.67559 17.01985,-3.72508 25.13215,0.0966 6.74364,3.17933 5.32505,1.25937 11.66551,5.30523 2.95518,1.88749 8.45448,5.07712 16.34184,6.2367 5.46048,0.80633 14.1217,-1.44867 23.04667,5.02724 5.0185,3.64269 9.60534,5.11672 16.02502,5.78047 7.55944,0.78177 8.29368,-0.28515 14.25317,4.03556 4.38406,3.18251 3.17618,2.47281 7.59905,5.76938 2.00312,1.49146 3.57457,3.01143 6.47275,4.31358 1.65778,0.74534 8.0125,1.63403 7.81686,1.62373 5.64899,0.28911 7.23866,-0.17504 11.72649,1.42334 -0.0966,-0.10373 5.79235,3.76388 4.76506,3.09379"
     id="path12"
     inkscape:export-filename="C:\Users\suitedoalex\sites\kansas-city-chiefs-logo-4.png"
     inkscape:export-xdpi="108.14152"
     inkscape:export-ydpi="108.14152" />
  <path
     inkscape:connector-curvature="0"
     style="fill:#000000;stroke-width:0.79206306"
     d="m 156.12648,257.91573 v 12.00292 h 45.08501 l 4.48784,-4.20663 v -14.40368 h -6.65808 l 0.0245,-3.65379 24.84702,-14.26109 2.08471,2.14412 c -5.56029,3.91436 -9.87306,7.56736 -13.20607,13.36526 -4.87594,8.13132 -6.65809,19.41664 -3.76388,28.40418 1.88511,6.087 4.19872,9.71228 8.25488,13.94348 3.90645,4.02842 7.23549,6.34758 13.60843,9.39069 5.21099,2.60827 17.51886,6.3476 27.0743,7.36065 9.26318,0.72394 20.84789,0.58137 28.5214,-0.43564 8.39428,-0.86731 17.084,-3.9104 22.29817,-6.05849 4.19555,-2.02689 8.82912,-3.91042 12.38945,-6.69373 8.97881,-6.46165 18.44555,-16.2056 18.59129,-28.3796 h -16.73786 c -5.27198,18.69585 -55.94501,27.24854 -76.21152,12.78388 -14.77041,-11.6243 -10.57167,-21.91479 -4.34527,-26.69569 l 1.88512,2.03006 -3.15796,3.33221 0.23128,12.03143 h 42.6819 l 5.5001,-5.21652 V 251.6521 h -3.27202 l -14.76643,-15.94185 c 28.37565,-6.08305 42.4221,6.3761 50.70233,19.9988 h 11.11739 l 5.61732,-5.50564 v -31.5946 l -11.84055,-0.0285 -7.09292,4.40309 c -25.19551,-11.15698 -43.86919,-9.87938 -63.41571,-3.38922 l -3.18647,-3.2435 18.04239,-10.78632 10.88533,-0.057 5.32821,-5.07395 0.0286,-10.75384 h -43.55159 l -4.63039,4.69931 v 7.32896 l -40.82531,23.36665 v -18.00042 l 6.59709,-6.66839 v -10.83942 h -42.7968 l -5.84542,6.83946 v 8.57725 h 7.00738 v 46.32301 h -2.1457 c 0,0 -5.73137,6.49334 -5.44305,6.60819"
     id="path14"
     inkscape:export-filename="C:\Users\suitedoalex\sites\kansas-city-chiefs-logo-4.png"
     inkscape:export-xdpi="108.14152"
     inkscape:export-ydpi="108.14152" />
  <path
     inkscape:connector-curvature="0"
     style="fill:#e31837;stroke-width:0.79206306"
     d="m 163.71523,192.23312 h 39.08593 v 7.0145 l -6.65807,0.0609 v 30.37403 L 249.422,199.24753 h -4.69059 v -7.0145 l 40.30887,-0.0571 v 7.01451 l -8.97802,0.11801 -27.28817,16.11295 36.72639,39.71165 1.27601,0.0285 v 8.08856 H 246.2395 v -8.1741 l 5.64582,0.057 -25.16384,-26.83826 -30.28929,17.39053 v 9.44773 h 6.36977 v 8.06003 h -39.08594 v -8.06003 h 6.65808 v -55.8848 h -6.65808 v -7.01451 z m 172.98183,76.81427 c -1.56512,8.25963 -5.32901,11.59263 -9.9903,16.9549 -6.2272,5.7979 -7.49925,6.5258 -13.72566,9.85484 -10.71106,5.36228 -21.86015,7.67827 -34.60206,7.9745 -17.81034,0.72395 -33.58585,-3.04707 -43.28784,-7.10401 -5.9381,-2.17264 -14.77039,-7.68143 -20.26968,-17.10144 -4.48784,-9.13012 -2.28827,-18.84238 -0.69464,-23.62328 1.99916,-5.7979 5.18247,-11.74234 14.47812,-18.08597 l 11.69798,12.63737 c -5.93493,5.15553 -10.27939,14.5787 -0.98374,25.30404 11.12056,13.9118 36.45549,17.82538 62.80664,9.99741 13.60843,-4.05299 19.54257,-9.70831 23.85931,-16.80836 h 10.71424 z m -78.00793,-47.24656 c 7.95866,-2.46569 30.40334,-10.14713 61.96469,3.76784 l 6.66204,-4.34923 h 9.32021 l -0.11406,28.05884 -10.36494,0.11802 C 315.58541,233.48296 291.555,227.88544 269.11427,233.25088 l -10.42514,-11.44926 z"
     id="path16"
     inkscape:export-filename="C:\Users\suitedoalex\sites\kansas-city-chiefs-logo-4.png"
     inkscape:export-xdpi="108.14152"
     inkscape:export-ydpi="108.14152" />
</svg>
